<?xml version="1.0" encoding="UTF-8" standalone="no"?>
<svg
   width="480"
   height="480"
   viewBox="0 0 1000 1000"
   version="1.1"
   id="svg1"
   sodipodi:docname="logo_neo.svg"
   inkscape:version="1.4 (86a8ad7, 2024-10-11)"
   xmlns:inkscape="http://www.inkscape.org/namespaces/inkscape"
   xmlns:sodipodi="http://sodipodi.sourceforge.net/DTD/sodipodi-0.dtd"
   xmlns="http://www.w3.org/2000/svg"
   xmlns:svg="http://www.w3.org/2000/svg">
  <defs
     id="defs1" />
  <sodipodi:namedview
     id="namedview1"
     pagecolor="#ffffff"
     bordercolor="#000000"
     borderopacity="0.25"
     inkscape:showpageshadow="2"
     inkscape:pageopacity="0.0"
     inkscape:pagecheckerboard="0"
     inkscape:deskcolor="#d1d1d1"
     inkscape:document-units="in"
     showgrid="false"
     inkscape:zoom="0.75656324"
     inkscape:cx="533.33281"
     inkscape:cy="533.33281"
     inkscape:window-width="1920"
     inkscape:window-height="1009"
     inkscape:window-x="486"
     inkscape:window-y="1072"
     inkscape:window-maximized="1"
     inkscape:current-layer="svg1" />
  <path
     id="CoderDojo 小田原 logo"
     fill="#324A77"
     stroke="none"
     stroke-width="1"
     d="M 469.00,0.14            C 469.00,0.14 503.00,0.14 503.00,0.14              503.00,0.14 523.00,0.14 523.00,0.14              523.00,0.14 535.00,0.91 535.00,0.91              556.60,2.39 577.72,4.94 599.00,9.20              787.68,46.93 938.66,190.16 985.37,377.00              992.65,406.11 997.04,435.12 999.09,465.00              999.09,465.00 1000.00,475.00 1000.00,475.00              1000.00,475.00 1000.00,523.00 1000.00,523.00              1000.00,523.00 999.09,535.00 999.09,535.00              996.11,578.55 988.00,621.66 973.66,663.00              938.69,763.76 872.97,851.35 785.00,911.98              768.20,923.55 750.92,933.62 733.00,943.31              708.82,956.38 679.28,968.81 653.00,976.98              614.33,988.99 575.35,996.33 535.00,999.09              535.00,999.09 523.00,1000.00 523.00,1000.00              523.00,1000.00 475.00,1000.00 475.00,1000.00              475.00,1000.00 465.00,999.09 465.00,999.09              418.90,995.93 373.48,986.96 330.00,971.05              272.06,949.86 218.60,919.36 172.00,878.72              121.98,835.09 79.25,780.87 50.26,721.00              27.66,674.34 12.13,624.32 4.73,573.00              4.73,573.00 0.00,524.00 0.00,524.00              0.00,524.00 0.00,474.00 0.00,474.00              0.00,474.00 0.91,464.00 0.91,464.00              0.91,464.00 4.73,427.00 4.73,427.00              11.29,381.51 24.17,336.99 42.86,295.00              98.52,169.99 204.32,73.48 333.00,27.69              359.78,18.16 394.86,9.42 423.00,5.27              423.00,5.27 457.00,1.17 457.00,1.17              457.00,1.17 469.00,0.14 469.00,0.14 Z            M 485.00,973.00            C 461.12,973.00 436.32,967.37 414.00,959.05              379.03,946.02 347.58,925.37 322.09,898.00              294.30,868.18 273.50,829.82 264.58,790.00              262.45,780.52 259.11,762.39 259.00,753.00              259.00,753.00 258.04,734.00 258.04,734.00              258.04,734.00 259.04,726.00 259.04,726.00              259.04,726.00 259.04,717.00 259.04,717.00              262.64,680.58 274.85,642.81 294.69,612.00              327.56,560.94 377.76,522.71 437.00,507.89              453.66,503.73 470.82,501.03 488.00,501.00              488.00,501.00 509.00,500.00 509.00,500.00              516.01,499.99 525.96,498.67 533.00,497.58              576.93,490.76 618.59,471.00 652.00,441.71              740.82,363.86 757.93,231.77 694.31,133.00              680.91,112.21 663.30,92.87 644.00,77.45              606.73,47.68 563.38,30.68 516.00,26.04              516.00,26.04 506.00,26.04 506.00,26.04              506.00,26.04 496.00,25.00 496.00,25.00              496.00,25.00 483.00,25.96 483.00,25.96              483.00,25.96 469.00,25.96 469.00,25.96              469.00,25.96 459.00,26.91 459.00,26.91              415.64,29.89 372.85,39.01 332.00,53.95              281.61,72.38 236.68,97.74 195.00,131.61              160.11,159.96 130.47,192.16 104.72,229.00              64.18,287.02 38.28,352.32 26.59,422.00              23.55,440.10 21.21,458.66 21.00,477.00              21.00,477.00 20.00,492.00 20.00,492.00              20.00,492.00 20.00,509.00 20.00,509.00              20.00,509.00 21.00,529.00 21.00,529.00              21.15,541.37 25.13,571.26 27.42,584.00              37.00,637.12 54.35,684.73 80.30,732.00              126.52,816.17 201.71,885.98 288.00,927.74              313.68,940.17 340.60,949.84 368.00,957.71              394.28,965.25 420.96,969.04 448.00,972.28              448.00,972.28 470.00,974.00 470.00,974.00              474.53,974.01 480.88,974.64 485.00,973.00 Z            M 451.00,217.00            C 457.91,203.21 478.51,209.41 479.61,224.00              480.63,237.44 464.63,245.92 454.04,237.58              443.09,228.97 434.17,206.91 434.00,193.00              434.00,193.00 434.00,184.00 434.00,184.00              434.03,165.31 443.21,146.64 457.00,134.17              470.04,122.39 488.35,115.18 506.00,115.18              532.93,115.18 560.04,132.45 571.00,157.00              551.71,157.00 546.86,160.74 530.00,168.00              510.35,137.06 465.50,138.97 448.32,171.00              439.72,187.04 442.25,201.09 449.00,217.00              449.00,217.00 451.00,217.00 451.00,217.00 Z            M 526.00,191.00            C 542.43,196.24 541.02,215.72 528.00,220.99              514.21,226.58 502.33,211.79 508.40,199.00              518.70,177.30 542.12,165.28 565.00,162.84              568.10,162.50 569.72,161.95 573.00,162.18              600.15,164.11 622.84,177.21 635.24,202.00              640.11,211.72 642.98,222.10 643.00,233.00              643.02,247.97 639.89,260.20 631.94,273.00              628.84,277.97 625.34,283.36 620.00,286.00              617.11,277.71 613.42,270.99 608.10,264.00              606.18,261.47 599.93,255.08 599.24,253.00              598.16,249.71 601.55,245.88 603.02,243.00              606.10,236.99 607.92,230.76 608.00,224.00              608.20,206.89 602.92,194.26 589.00,183.53              570.27,169.09 540.15,171.29 526.00,191.00 Z            M 452.00,298.00            C 449.81,294.45 448.40,292.29 448.10,288.00              446.77,269.60 471.34,264.97 477.91,280.00              478.99,282.46 479.09,285.35 478.96,288.00              478.41,298.50 469.86,301.97 461.00,304.36              444.21,308.89 426.91,308.08 411.00,300.82              403.79,297.53 394.65,291.58 389.17,285.91              356.38,252.03 364.15,197.61 404.00,173.06              411.72,168.31 421.95,164.74 431.00,164.00              431.00,164.00 428.44,177.00 428.44,177.00              426.97,186.38 428.32,196.76 430.00,206.00              423.60,207.16 418.21,209.89 413.00,213.76              392.34,229.13 387.81,258.08 402.79,279.00              411.84,291.64 427.40,299.57 443.00,298.96              443.00,298.96 452.00,298.00 452.00,298.00 Z            M 574.00,254.00            C 573.89,258.65 573.64,262.14 570.58,265.89              564.18,273.96 552.14,273.88 545.80,265.89              537.06,254.70 547.32,238.37 561.00,240.48              584.48,244.10 605.30,263.38 613.80,285.00              626.88,318.29 612.74,357.75 581.00,374.68              567.65,381.80 556.77,383.17 542.00,383.00              533.39,382.90 518.76,379.35 512.00,374.00              525.42,364.69 530.25,355.61 538.00,342.00              538.00,342.00 552.00,344.83 552.00,344.83              562.14,345.84 573.57,342.51 582.00,336.90              603.61,322.51 609.50,293.69 595.45,272.00              590.09,263.72 582.78,258.23 574.00,254.00 Z            M 529.00,320.00            C 511.24,326.47 500.36,308.25 509.65,296.09              515.78,288.05 528.22,288.05 534.35,296.09              537.88,300.71 537.99,305.50 538.00,311.00              538.02,327.68 533.34,342.74 522.98,356.00              496.62,389.79 445.51,393.33 415.09,362.91              397.56,345.39 391.84,322.97 395.00,299.00              395.00,299.00 413.00,307.80 413.00,307.80              413.00,307.80 435.00,313.00 435.00,313.00              433.91,318.50 434.95,324.69 436.67,330.00              442.31,347.36 456.78,360.43 475.00,363.00              477.74,363.39 480.23,363.89 483.00,363.68              508.43,361.76 525.60,345.19 529.00,320.00 Z            M 529.00,640.00            C 529.00,640.00 457.00,640.00 457.00,640.00              452.08,640.01 448.13,639.81 444.21,643.39              436.73,650.22 437.80,663.57 447.02,668.31              451.52,670.64 458.89,670.00 464.00,670.00              464.00,670.00 499.00,670.00 499.00,670.00              499.00,670.00 499.00,843.00 499.00,843.00              499.00,843.00 461.00,843.00 461.00,843.00              456.29,843.01 450.25,843.21 446.02,845.45              437.47,849.96 436.63,863.29 443.21,869.78              447.55,874.05 452.37,873.99 458.00,874.00              458.00,874.00 570.00,874.00 570.00,874.00              583.13,873.94 587.98,869.05 588.00,856.00              588.00,856.00 588.00,785.00 588.00,785.00              587.99,781.01 588.22,777.59 585.99,774.04              580.78,765.72 567.96,764.70 561.56,772.19              558.16,776.16 558.02,780.07 558.00,785.00              558.00,785.00 558.00,843.00 558.00,843.00              558.00,843.00 529.00,843.00 529.00,843.00              529.00,843.00 529.00,640.00 529.00,640.00 Z" />
  <path
     style="fill:#ffffff;stroke-width:1.32177;fill-opacity:1"
     d="m 473.19243,1035.9996 c -2.18091,-0.2916 -13.77942,-2.0101 -25.77445,-3.8189 C 296.34293,1009.3995 159.38455,913.38344 85.376651,778.36804 23.429884,665.35622 6.4200419,536.49475 37.006356,411.92918 80.025909,236.72813 214.23577,97.227548 387.59709,47.517755 436.84277,33.397004 501.27166,25.614978 545.25719,28.474823 c 50.86056,3.306844 101.8577,23.172483 141.42071,55.089613 13.76127,11.101789 36.07734,34.511024 45.71211,47.951334 80.56994,112.39354 57.65494,267.13842 -51.92813,350.67024 -26.80341,20.43142 -63.65828,37.64092 -95.48565,44.58735 -18.38276,4.01209 -29.04251,5.22358 -58.25225,6.62038 -46.31747,2.21491 -74.77221,8.90107 -109.04575,25.62306 -50.18423,24.48477 -92.81723,67.29089 -117.10338,117.57896 -24.32635,50.37129 -31.3025,104.75008 -20.37789,158.84488 13.55953,67.14203 52.21025,124.27434 109.72418,162.1909 24.45457,16.12186 59.01693,30.46996 87.89747,36.48946 10.88689,2.2691 11.67789,2.6033 5.94795,2.513 -3.63485,-0.057 -8.39321,-0.3428 -10.57413,-0.6344 z m 42.95741,-628.49771 c 3.27138,-0.75801 10.40892,-3.47725 15.8612,-6.04278 11.70488,-5.50762 26.12686,-19.08547 32.81931,-30.89834 8.71341,-15.38011 12.35863,-42.61903 7.05203,-52.69653 -5.87912,-11.1648 -21.08039,-12.10781 -29.18049,-1.81019 -5.18424,6.59068 -2.78108,20.66288 4.19271,24.5513 1.62816,0.90783 6.05422,1.96635 9.83567,2.35228 l 6.87538,0.70168 -2.95183,8.74697 c -9.91336,29.37547 -42.35132,42.83357 -69.66075,28.90133 -13.80289,-7.04171 -24.57313,-23.15998 -26.15958,-39.14927 l -0.89343,-9.00455 -11.91291,-2.83383 c -6.55208,-1.5586 -16.15448,-4.96984 -21.33863,-7.58054 -9.36784,-4.71756 -9.43056,-4.72878 -10.20864,-1.82667 -1.388,5.17699 -0.82563,18.53324 1.17878,27.9957 6.65048,31.39583 31.80076,55.33999 63.06785,60.04334 8.9618,1.34808 21.93035,0.74969 31.42333,-1.4499 z m 84.93312,-0.35372 c 34.01846,-7.20882 59.13944,-39.23041 59.13944,-75.38476 0,-24.48739 -10.90025,-46.52338 -30.56745,-61.79529 -14.89307,-11.56471 -33.07651,-16.90523 -41.94478,-12.31927 -11.78203,6.09272 -12.62731,23.71689 -1.45405,30.31711 2.01281,1.18899 6.37245,2.1618 9.68811,2.1618 7.57889,0 14.83242,-5.68862 16.13984,-12.65775 0.46692,-2.48887 1.27556,-4.52521 1.797,-4.52521 2.31639,0 13.59612,8.59145 17.06046,12.99448 16.66987,21.18668 14.97546,49.31658 -4.04209,67.10527 -10.09465,9.44236 -19.21558,13.08479 -32.76537,13.08479 -6.17926,0 -13.38065,-0.45713 -16.00309,-1.01584 l -4.76806,-1.01585 -5.14519,8.93616 c -2.82985,4.9149 -9.17115,12.9379 -14.09179,17.82891 l -8.94661,8.89274 5.3251,2.71667 c 12.42333,6.33791 33.52849,8.2891 50.57853,4.67604 z M 494.26352,324.44656 c 10.11503,-3.15193 16.15028,-8.24011 16.85842,-14.21293 1.4786,-12.47156 -5.01913,-21.42764 -15.54597,-21.42764 -11.9052,0 -18.46362,6.89176 -17.44768,18.33445 0.29876,3.36504 1.04026,7.23866 1.64777,8.60806 1.04452,2.35452 0.48946,2.45755 -10.2135,1.89578 -9.30166,-0.48822 -12.83705,-1.34184 -19.84408,-4.79139 -10.29674,-5.06906 -19.62119,-14.60176 -24.53253,-25.08042 -3.01979,-6.4429 -3.54242,-9.313 -3.54242,-19.45386 0,-10.11932 0.52516,-13.01615 3.51645,-19.39712 1.93403,-4.12567 6.08545,-10.28826 9.22536,-13.69466 5.88043,-6.37952 17.26795,-13.79662 21.21567,-13.81853 3.52386,-0.0196 3.83091,-1.75433 2.22344,-12.5622 -1.42111,-9.5549 -0.65959,-19.96612 2.34045,-31.99743 0.67653,-2.71317 0.37952,-2.85811 -4.35825,-2.12686 -21.733,3.35441 -42.78121,18.91003 -53.69857,39.68582 -6.46947,12.31142 -8.88253,22.28907 -8.88253,36.72802 0,13.71906 2.35273,24.15712 8.05649,35.74306 9.78645,19.87911 31.80634,36.15283 54.39775,40.20249 10.31312,1.84868 28.09194,0.63468 38.58373,-2.63464 z m 172.37959,-22.43811 c 15.49228,-15.4923 23.28042,-44.65616 18.11975,-67.85232 -6.79537,-30.5439 -29.29441,-52.99039 -59.95082,-59.8108 -24.14148,-5.37097 -52.50718,2.93365 -70.41454,20.61524 -16.3559,16.14967 -18.86158,30.23294 -7.0343,39.53628 4.01595,3.15896 12.50623,3.67326 17.65233,1.0693 4.8282,-2.4431 9.29514,-9.84115 9.27256,-15.35704 -0.0259,-6.32858 -2.37589,-10.65209 -7.76305,-14.28249 l -4.4396,-2.99186 4.38184,-4.09325 c 2.41,-2.25128 7.39047,-5.68116 11.06769,-7.62195 6.0161,-3.17523 8.07613,-3.52871 20.5644,-3.52871 12.51134,0 14.61788,0.3631 21.38351,3.68581 9.72966,4.7784 21.12555,16.97494 24.60966,26.33868 5.55623,14.93272 4.91467,27.13839 -2.21305,42.10328 -2.14811,4.51003 -3.55186,9.15973 -3.11945,10.33268 0.43241,1.17293 3.38377,5.10659 6.55857,8.74145 3.17482,3.63485 7.97564,11.18247 10.66853,16.77249 2.69288,5.59001 5.29648,10.19967 5.7858,10.24369 0.4893,0.044 2.68087,-1.7112 4.87017,-3.90048 z M 506.42616,252.70587 c 9.20968,-8.44004 6.82546,-23.50286 -4.46697,-28.22115 -6.56842,-2.74445 -14.20372,-1.59565 -18.82571,2.83251 l -3.64255,3.48977 -2.09767,-5.24258 c -1.15372,-2.88342 -2.76985,-9.10252 -3.59139,-13.82021 -3.51086,-20.16081 8.53371,-41.39076 28.8988,-50.93755 6.47523,-3.03547 9.22145,-3.51644 20.07806,-3.51644 11.54062,0 13.30318,0.35726 21.39255,4.33615 5.70795,2.80755 10.97764,6.74074 14.94839,11.15716 6.04546,6.724 6.19234,6.79663 10.32984,5.10726 15.70835,-6.41386 25.99193,-9.33169 32.9456,-9.34787 4.18009,-0.01 7.60016,-0.52026 7.60016,-1.13452 0,-2.70908 -10.79587,-17.31724 -17.30939,-23.42176 -24.54854,-23.00711 -58.41355,-27.89687 -88.76711,-12.81707 -12.78802,6.35315 -27.6872,21.24316 -33.78579,33.765 -12.62599,25.92413 -10.17858,56.87039 6.40376,80.972 5.47891,7.9633 10.87225,11.16586 18.8147,11.17208 5.29034,0.004 7.06195,-0.69535 11.07472,-4.37278 z"
     id="path1"
     transform="scale(0.93750089)" />
  <path
     style="fill:#ffffff;fill-opacity:1;stroke-width:1.32177"
     d="m 475.64179,928.63837 c -5.50742,-3.35822 -7.95102,-10.46781 -5.92363,-17.23462 3.05317,-10.19058 8.78781,-11.86391 40.81418,-11.90928 l 22.80047,-0.0323 v -92.52366 -92.52366 l -24.12224,-0.007 c -13.26723,-0.004 -26.32567,-0.61934 -29.01874,-1.3673 -6.8898,-1.91352 -10.30382,-6.74806 -10.30382,-14.59107 0,-7.93374 3.73066,-12.73944 11.23502,-14.47256 2.90789,-0.67157 22.68482,-1.23522 43.94874,-1.25257 l 38.66167,-0.0315 v 108.38486 108.38486 h 15.8612 15.8612 v -33.08662 c 0,-35.19759 0.54481,-38.8686 6.56517,-44.23673 2.12224,-1.89232 4.83415,-2.64353 9.54322,-2.64353 5.7265,0 7.06588,0.54548 10.3418,4.21188 2.32579,2.603 4.09143,6.39995 4.62231,9.94004 0.47244,3.15049 0.66323,23.85736 0.42399,46.01525 -0.47496,43.99064 -0.90341,46.55985 -8.32865,49.943 -2.54331,1.15882 -21.47852,1.5778 -71.14407,1.57416 -64.3934,-0.005 -67.88024,-0.12804 -71.83782,-2.54123 z"
     id="path2"
     transform="scale(0.93750089)" />
</svg>
