<?xml version="1.0" encoding="UTF-8" standalone="no"?>
<!DOCTYPE svg PUBLIC "-//W3C//DTD SVG 20010904//EN"
              "http://www.w3.org/TR/2001/REC-SVG-20010904/DTD/svg10.dtd">

<svg xmlns="http://www.w3.org/2000/svg"
     width="11.1111in" height="11.1111in"
     viewBox="0 0 1000 1000">
  <path id="CoderDojo 小田原 logo"
        fill="#324A77" stroke="none" stroke-width="1"
        d="M 469.00,0.14
           C 469.00,0.14 503.00,0.14 503.00,0.14
             503.00,0.14 523.00,0.14 523.00,0.14
             523.00,0.14 535.00,0.91 535.00,0.91
             556.60,2.39 577.72,4.94 599.00,9.20
             787.68,46.93 938.66,190.16 985.37,377.00
             992.65,406.11 997.04,435.12 999.09,465.00
             999.09,465.00 1000.00,475.00 1000.00,475.00
             1000.00,475.00 1000.00,523.00 1000.00,523.00
             1000.00,523.00 999.09,535.00 999.09,535.00
             996.11,578.55 988.00,621.66 973.66,663.00
             938.69,763.76 872.97,851.35 785.00,911.98
             768.20,923.55 750.92,933.62 733.00,943.31
             708.82,956.38 679.28,968.81 653.00,976.98
             614.33,988.99 575.35,996.33 535.00,999.09
             535.00,999.09 523.00,1000.00 523.00,1000.00
             523.00,1000.00 475.00,1000.00 475.00,1000.00
             475.00,1000.00 465.00,999.09 465.00,999.09
             418.90,995.93 373.48,986.96 330.00,971.05
             272.06,949.86 218.60,919.36 172.00,878.72
             121.98,835.09 79.25,780.87 50.26,721.00
             27.66,674.34 12.13,624.32 4.73,573.00
             4.73,573.00 0.00,524.00 0.00,524.00
             0.00,524.00 0.00,474.00 0.00,474.00
             0.00,474.00 0.91,464.00 0.91,464.00
             0.91,464.00 4.73,427.00 4.73,427.00
             11.29,381.51 24.17,336.99 42.86,295.00
             98.52,169.99 204.32,73.48 333.00,27.69
             359.78,18.16 394.86,9.42 423.00,5.27
             423.00,5.27 457.00,1.17 457.00,1.17
             457.00,1.17 469.00,0.14 469.00,0.14 Z
           M 485.00,973.00
           C 461.12,973.00 436.32,967.37 414.00,959.05
             379.03,946.02 347.58,925.37 322.09,898.00
             294.30,868.18 273.50,829.82 264.58,790.00
             262.45,780.52 259.11,762.39 259.00,753.00
             259.00,753.00 258.04,734.00 258.04,734.00
             258.04,734.00 259.04,726.00 259.04,726.00
             259.04,726.00 259.04,717.00 259.04,717.00
             262.64,680.58 274.85,642.81 294.69,612.00
             327.56,560.94 377.76,522.71 437.00,507.89
             453.66,503.73 470.82,501.03 488.00,501.00
             488.00,501.00 509.00,500.00 509.00,500.00
             516.01,499.99 525.96,498.67 533.00,497.58
             576.93,490.76 618.59,471.00 652.00,441.71
             740.82,363.86 757.93,231.77 694.31,133.00
             680.91,112.21 663.30,92.87 644.00,77.45
             606.73,47.68 563.38,30.68 516.00,26.04
             516.00,26.04 506.00,26.04 506.00,26.04
             506.00,26.04 496.00,25.00 496.00,25.00
             496.00,25.00 483.00,25.96 483.00,25.96
             483.00,25.96 469.00,25.96 469.00,25.96
             469.00,25.96 459.00,26.91 459.00,26.91
             415.64,29.89 372.85,39.01 332.00,53.95
             281.61,72.38 236.68,97.74 195.00,131.61
             160.11,159.96 130.47,192.16 104.72,229.00
             64.18,287.02 38.28,352.32 26.59,422.00
             23.55,440.10 21.21,458.66 21.00,477.00
             21.00,477.00 20.00,492.00 20.00,492.00
             20.00,492.00 20.00,509.00 20.00,509.00
             20.00,509.00 21.00,529.00 21.00,529.00
             21.15,541.37 25.13,571.26 27.42,584.00
             37.00,637.12 54.35,684.73 80.30,732.00
             126.52,816.17 201.71,885.98 288.00,927.74
             313.68,940.17 340.60,949.84 368.00,957.71
             394.28,965.25 420.96,969.04 448.00,972.28
             448.00,972.28 470.00,974.00 470.00,974.00
             474.53,974.01 480.88,974.64 485.00,973.00 Z
           M 451.00,217.00
           C 457.91,203.21 478.51,209.41 479.61,224.00
             480.63,237.44 464.63,245.92 454.04,237.58
             443.09,228.97 434.17,206.91 434.00,193.00
             434.00,193.00 434.00,184.00 434.00,184.00
             434.03,165.31 443.21,146.64 457.00,134.17
             470.04,122.39 488.35,115.18 506.00,115.18
             532.93,115.18 560.04,132.45 571.00,157.00
             551.71,157.00 546.86,160.74 530.00,168.00
             510.35,137.06 465.50,138.97 448.32,171.00
             439.72,187.04 442.25,201.09 449.00,217.00
             449.00,217.00 451.00,217.00 451.00,217.00 Z
           M 526.00,191.00
           C 542.43,196.24 541.02,215.72 528.00,220.99
             514.21,226.58 502.33,211.79 508.40,199.00
             518.70,177.30 542.12,165.28 565.00,162.84
             568.10,162.50 569.72,161.95 573.00,162.18
             600.15,164.11 622.84,177.21 635.24,202.00
             640.11,211.72 642.98,222.10 643.00,233.00
             643.02,247.97 639.89,260.20 631.94,273.00
             628.84,277.97 625.34,283.36 620.00,286.00
             617.11,277.71 613.42,270.99 608.10,264.00
             606.18,261.47 599.93,255.08 599.24,253.00
             598.16,249.71 601.55,245.88 603.02,243.00
             606.10,236.99 607.92,230.76 608.00,224.00
             608.20,206.89 602.92,194.26 589.00,183.53
             570.27,169.09 540.15,171.29 526.00,191.00 Z
           M 452.00,298.00
           C 449.81,294.45 448.40,292.29 448.10,288.00
             446.77,269.60 471.34,264.97 477.91,280.00
             478.99,282.46 479.09,285.35 478.96,288.00
             478.41,298.50 469.86,301.97 461.00,304.36
             444.21,308.89 426.91,308.08 411.00,300.82
             403.79,297.53 394.65,291.58 389.17,285.91
             356.38,252.03 364.15,197.61 404.00,173.06
             411.72,168.31 421.95,164.74 431.00,164.00
             431.00,164.00 428.44,177.00 428.44,177.00
             426.97,186.38 428.32,196.76 430.00,206.00
             423.60,207.16 418.21,209.89 413.00,213.76
             392.34,229.13 387.81,258.08 402.79,279.00
             411.84,291.64 427.40,299.57 443.00,298.96
             443.00,298.96 452.00,298.00 452.00,298.00 Z
           M 574.00,254.00
           C 573.89,258.65 573.64,262.14 570.58,265.89
             564.18,273.96 552.14,273.88 545.80,265.89
             537.06,254.70 547.32,238.37 561.00,240.48
             584.48,244.10 605.30,263.38 613.80,285.00
             626.88,318.29 612.74,357.75 581.00,374.68
             567.65,381.80 556.77,383.17 542.00,383.00
             533.39,382.90 518.76,379.35 512.00,374.00
             525.42,364.69 530.25,355.61 538.00,342.00
             538.00,342.00 552.00,344.83 552.00,344.83
             562.14,345.84 573.57,342.51 582.00,336.90
             603.61,322.51 609.50,293.69 595.45,272.00
             590.09,263.72 582.78,258.23 574.00,254.00 Z
           M 529.00,320.00
           C 511.24,326.47 500.36,308.25 509.65,296.09
             515.78,288.05 528.22,288.05 534.35,296.09
             537.88,300.71 537.99,305.50 538.00,311.00
             538.02,327.68 533.34,342.74 522.98,356.00
             496.62,389.79 445.51,393.33 415.09,362.91
             397.56,345.39 391.84,322.97 395.00,299.00
             395.00,299.00 413.00,307.80 413.00,307.80
             413.00,307.80 435.00,313.00 435.00,313.00
             433.91,318.50 434.95,324.69 436.67,330.00
             442.31,347.36 456.78,360.43 475.00,363.00
             477.74,363.39 480.23,363.89 483.00,363.68
             508.43,361.76 525.60,345.19 529.00,320.00 Z
           M 529.00,640.00
           C 529.00,640.00 457.00,640.00 457.00,640.00
             452.08,640.01 448.13,639.81 444.21,643.39
             436.73,650.22 437.80,663.57 447.02,668.31
             451.52,670.64 458.89,670.00 464.00,670.00
             464.00,670.00 499.00,670.00 499.00,670.00
             499.00,670.00 499.00,843.00 499.00,843.00
             499.00,843.00 461.00,843.00 461.00,843.00
             456.29,843.01 450.25,843.21 446.02,845.45
             437.47,849.96 436.63,863.29 443.21,869.78
             447.55,874.05 452.37,873.99 458.00,874.00
             458.00,874.00 570.00,874.00 570.00,874.00
             583.13,873.94 587.98,869.05 588.00,856.00
             588.00,856.00 588.00,785.00 588.00,785.00
             587.99,781.01 588.22,777.59 585.99,774.04
             580.78,765.72 567.96,764.70 561.56,772.19
             558.16,776.16 558.02,780.07 558.00,785.00
             558.00,785.00 558.00,843.00 558.00,843.00
             558.00,843.00 529.00,843.00 529.00,843.00
             529.00,843.00 529.00,640.00 529.00,640.00 Z" />
</svg>
